<svg width="16" height="17" viewBox="0 0 16 17" fill="none" xmlns="http://www.w3.org/2000/svg">
<path fill-rule="evenodd" clip-rule="evenodd" d="M5.5 11.5H4.419L4.077 12.526L3.919 13H2V10.02C2.496 10.149 3.213 10.25 4.25 10.25C4.44891 10.25 4.63968 10.171 4.78033 10.0303C4.92098 9.88968 5 9.69892 5 9.5C5 9.30109 4.92098 9.11033 4.78033 8.96967C4.63968 8.82902 4.44891 8.75 4.25 8.75C3.177 8.75 2.568 8.63 2.252 8.533C2.18269 8.51172 2.11459 8.48668 2.048 8.458C2.12461 8.12816 2.29272 7.82661 2.533 7.588C2.60633 7.51467 2.67767 7.43867 2.747 7.36C4.272 7.793 6.15 8 8 8C9.85 8 11.728 7.793 13.253 7.36C13.3217 7.43934 13.393 7.51534 13.467 7.588C13.708 7.83 13.875 8.132 13.952 8.458C13.908 8.47934 13.84 8.50434 13.748 8.533C13.432 8.63 12.823 8.75 11.75 8.75C11.5511 8.75 11.3603 8.82902 11.2197 8.96967C11.079 9.11033 11 9.30109 11 9.5C11 9.69892 11.079 9.88968 11.2197 10.0303C11.3603 10.171 11.5511 10.25 11.75 10.25C12.787 10.25 13.504 10.149 14 10.02V13H12.081L11.923 12.526L11.581 11.5H5.5ZM12.424 6.028C11.144 6.338 9.584 6.5 8 6.5C6.416 6.5 4.856 6.338 3.576 6.028C3.60667 5.95334 3.636 5.878 3.664 5.802L4.112 4.545C4.292 4.04 4.682 3.739 5.072 3.682C7.0139 3.40594 8.9851 3.40594 10.927 3.682C11.319 3.739 11.707 4.04 11.887 4.545L12.337 5.802C12.3637 5.878 12.3927 5.95334 12.424 6.028ZM10.772 13.816L10.5 13H5.5L5.228 13.816C5.16165 14.0152 5.03428 14.1885 4.86395 14.3112C4.69362 14.434 4.48896 14.5001 4.279 14.5H1.5C1.23478 14.5 0.98043 14.3946 0.792893 14.2071C0.605357 14.0196 0.5 13.7652 0.5 13.5V8.875C0.5 7.995 0.85 7.15 1.472 6.528C1.63316 6.3673 1.77726 6.19036 1.902 6H1.25C1.05109 6 0.860322 5.92099 0.71967 5.78033C0.579018 5.63968 0.5 5.44892 0.5 5.25C0.5 5.05109 0.579018 4.86033 0.71967 4.71967C0.860322 4.57902 1.05109 4.5 1.25 4.5H2.536L2.7 4.04C3.043 3.08 3.848 2.344 4.857 2.198C6.94182 1.9012 9.05818 1.9012 11.143 2.198C12.152 2.344 12.957 3.08 13.3 4.041L13.464 4.5H14.75C14.9489 4.5 15.1397 4.57902 15.2803 4.71967C15.421 4.86033 15.5 5.05109 15.5 5.25C15.5 5.44892 15.421 5.63968 15.2803 5.78033C15.1397 5.92099 14.9489 6 14.75 6H14.099C14.2237 6.19067 14.3667 6.36667 14.528 6.528C15.1503 7.15055 15.4999 7.99475 15.5 8.875V13.5C15.5 13.7652 15.3946 14.0196 15.2071 14.2071C15.0196 14.3946 14.7652 14.5 14.5 14.5H11.72C11.5102 14.4998 11.3058 14.4337 11.1356 14.311C10.9655 14.1882 10.8383 14.015 10.772 13.816Z" fill="#313131"/>
</svg>
