<svg xmlns="http://www.w3.org/2000/svg" version="1.1" xmlns:xlink="http://www.w3.org/1999/xlink" width="319" height="359"><svg width="319" height="359" viewBox="0 0 319 359" fill="none" xmlns="http://www.w3.org/2000/svg">
<path d="M75.1828 191.403C95.8584 189.885 108.997 210.588 112.982 221.13H169.065C183.18 163.952 228.297 155.561 249.092 158.512C315.255 177.488 313.365 206.583 313.995 242.003C314.625 277.423 252.872 350.793 248.462 356.486C244.933 361.04 239.85 358.383 237.749 356.486C201.958 325.619 177.047 267.303 169.065 242.003H147.01V260.345C139.449 269.959 133.357 264.351 131.257 260.345V242.003H111.723C102.649 268.821 80.6414 273.417 70.7719 272.363C34.9876 268.821 31.9107 236.732 34.8453 221.13C44.2973 200.89 49.3383 193.3 75.1828 191.403Z" fill="#C18B3F"></path>
<path d="M187.584 219.926C202.367 176.697 234.951 171.754 249.395 174.686C285.717 177.828 302.285 209.873 298.462 240.661C295.403 265.292 260.228 309.15 243.023 328C191.534 275.722 184.61 234.168 187.584 219.926Z" fill="#166773"></path>
<path d="M240.291 288.33C243.298 291.355 246.554 289.59 247.807 288.33C271.357 272.703 279.748 252.413 281 244.222C276.616 204.524 258.454 202.004 240.291 200.113C222.129 198.223 202.713 220.277 206.471 244.222C210.229 268.166 236.534 284.549 240.291 288.33Z" fill="#E9E2CC"></path>
<path d="M150.376 150H127.255C124.083 150.517 123.291 153.66 123.292 155.167C123.072 162.056 122.763 176.35 123.292 178.417C123.82 180.483 126.154 181 127.255 181H150.376C153.547 181 154.78 179.278 155 178.417V155.167C155 152.067 151.917 150.431 150.376 150Z" fill="#166773" stroke="#166773"></path>
<path d="M254.57 257.875L242.865 246.206L229.926 257.875C223.519 258.858 223.562 253.781 224.384 251.119L235.471 239.449L224.384 228.393C222.905 222.006 228.285 221.637 231.16 222.252L242.249 233.307L253.954 222.252C259.868 220.777 260.115 226.142 259.499 229.008L248.41 240.064L260.731 252.348C262.209 257.261 257.24 258.08 254.57 257.875Z" fill="#C18B3F" stroke="#C18B3F"></path>
<path d="M150.376 110H127.255C124.083 110.517 123.291 113.66 123.292 115.167C123.072 122.056 122.763 136.35 123.292 138.417C123.82 140.483 126.154 141 127.255 141H150.376C153.547 141 154.78 139.278 155 138.417V115.167C155 112.067 151.917 110.431 150.376 110Z" fill="#166773" stroke="#166773"></path>
<path d="M190.52 110H168.122C165.049 110.517 164.282 113.66 164.283 115.167C164.069 122.056 163.771 136.35 164.283 138.417C164.795 140.483 167.056 141 168.122 141H190.52C193.592 141 194.787 139.278 195 138.417V115.167C195 112.067 192.014 110.431 190.52 110Z" fill="#166773" stroke="#166773"></path>
<path d="M190.696 325.263C203.3 332.824 195.948 341.015 190.696 344.165C131.245 344.795 11.2095 345.677 6.67197 344.165C2.13439 342.653 1 338.074 1 335.974V129.313C50.9973 88.3587 151.874 5.69419 155.404 2.66988C158.933 -0.354433 162.756 1.40975 164.227 2.66988L318 129.313V174.048C316.487 192.697 305.186 181.818 299.724 174.048V139.394L158.555 24.7221L19.9066 137.504V325.263H190.696Z" fill="#166773" stroke="#166773"></path>
<ellipse cx="73" cy="231.5" rx="20" ry="20.5" fill="#166773"></ellipse>
</svg><style>@media (prefers-color-scheme: light) { :root { filter: none; } }
@media (prefers-color-scheme: dark) { :root { filter: none; } }
</style></svg>