<svg width="36" height="36" viewBox="0 0 36 36" fill="none" xmlns="http://www.w3.org/2000/svg">
<path d="M24.75 6H12C10.4087 6 8.88258 6.63214 7.75736 7.75736C6.63214 8.88258 6 10.4087 6 12V24.75C6 26.3413 6.63214 27.8674 7.75736 28.9926C8.88258 30.1179 10.4087 30.75 12 30.75H22.2645C23.0526 30.75 23.833 30.5948 24.5611 30.2931C25.2892 29.9915 25.9508 29.5494 26.508 28.992L28.992 26.508C29.5494 25.9508 29.9915 25.2892 30.2931 24.5611C30.5948 23.833 30.75 23.0526 30.75 22.2645V12C30.75 10.4087 30.1179 8.88258 28.9926 7.75736C27.8674 6.63214 26.3413 6 24.75 6Z" stroke="#006073" stroke-width="2.25" stroke-linecap="round" stroke-linejoin="round"/>
<path d="M30.75 21H25.5C24.3065 21 23.1619 21.4741 22.318 22.318C21.4741 23.1619 21 24.3065 21 25.5V30.75M12 12H23.25M12 18H19.5" stroke="#006073" stroke-width="2.25" stroke-linecap="round" stroke-linejoin="round"/>
</svg>
