<svg width="36" height="36" viewBox="0 0 36 36" fill="none" xmlns="http://www.w3.org/2000/svg">
<path d="M18 4.5C15.2152 4.5 12.5445 5.60625 10.5754 7.57538C8.60625 9.54452 7.5 12.2152 7.5 15C7.5 19.293 10.173 23.4345 13.107 26.643C14.6072 28.2775 16.2441 29.7809 18 31.137C18.262 30.936 18.5695 30.691 18.9225 30.402C20.3322 29.2444 21.659 27.9893 22.893 26.646C25.827 23.4345 28.5 19.2945 28.5 15C28.5 12.2152 27.3938 9.54452 25.4246 7.57538C23.4555 5.60625 20.7848 4.5 18 4.5ZM18 34.821L17.1495 34.236L17.145 34.233L17.136 34.2255L17.106 34.2045L16.9935 34.125L16.5885 33.8295C14.5363 32.2872 12.6298 30.56 10.893 28.6695C7.827 25.3125 4.5 20.454 4.5 14.9985C4.5 11.4181 5.92232 7.9843 8.45406 5.45256C10.9858 2.92082 14.4196 1.4985 18 1.4985C21.5804 1.4985 25.0142 2.92082 27.5459 5.45256C30.0777 7.9843 31.5 11.4181 31.5 14.9985C31.5 20.454 28.173 25.314 25.107 28.6665C23.3707 30.5569 21.4647 32.2841 19.413 33.8265C19.2421 33.9542 19.0696 34.0797 18.8955 34.203L18.864 34.224L18.855 34.2315L18.852 34.233L18 34.821ZM18 12C17.2044 12 16.4413 12.3161 15.8787 12.8787C15.3161 13.4413 15 14.2044 15 15C15 15.7957 15.3161 16.5587 15.8787 17.1213C16.4413 17.6839 17.2044 18 18 18C18.7956 18 19.5587 17.6839 20.1213 17.1213C20.6839 16.5587 21 15.7957 21 15C21 14.2044 20.6839 13.4413 20.1213 12.8787C19.5587 12.3161 18.7956 12 18 12ZM12 15C12 13.4087 12.6321 11.8826 13.7574 10.7574C14.8826 9.63215 16.4087 9.00001 18 9.00001C19.5913 9.00001 21.1174 9.63215 22.2426 10.7574C23.3679 11.8826 24 13.4087 24 15C24 16.5913 23.3679 18.1174 22.2426 19.2426C21.1174 20.3679 19.5913 21 18 21C16.4087 21 14.8826 20.3679 13.7574 19.2426C12.6321 18.1174 12 16.5913 12 15Z" fill="#006073"/>
</svg>
