<svg width="36" height="36" viewBox="0 0 36 36" fill="none" xmlns="http://www.w3.org/2000/svg">
<path d="M18 24C20.4853 24 22.5 21.9853 22.5 19.5C22.5 17.0147 20.4853 15 18 15C15.5147 15 13.5 17.0147 13.5 19.5C13.5 21.9853 15.5147 24 18 24Z" stroke="#006073" stroke-width="1.5"/>
<path d="M14.667 31.5H21.333C26.0145 31.5 28.356 31.5 30.0375 30.3975C30.7632 29.9222 31.3881 29.3085 31.8765 28.5915C33 26.9415 33 24.642 33 20.046C33 15.45 33 13.1505 31.8765 11.5005C31.3881 10.7835 30.7632 10.1698 30.0375 9.69451C28.9575 8.98501 27.6045 8.73151 25.533 8.64151C24.5445 8.64151 23.694 7.90651 23.5005 6.95401C23.3526 6.25631 22.9684 5.63106 22.4128 5.18394C21.8571 4.73681 21.1642 4.49522 20.451 4.50001H15.549C14.067 4.50001 12.7905 5.52751 12.4995 6.95401C12.306 7.90651 11.4555 8.64151 10.467 8.64151C8.397 8.73151 7.044 8.98651 5.9625 9.69451C5.23731 10.17 4.61291 10.7836 4.125 11.5005C3 13.1505 3 15.4485 3 20.046C3 24.6435 3 26.94 4.1235 28.5915C4.6095 29.3055 5.2335 29.919 5.9625 30.3975C7.644 31.5 9.9855 31.5 14.667 31.5Z" stroke="#006073" stroke-width="1.5"/>
<path d="M28.5 15H27" stroke="#006073" stroke-width="2" stroke-linecap="round"/>
</svg>
