<svg width="17" height="17" viewBox="0 0 17 17" fill="none" xmlns="http://www.w3.org/2000/svg">
<path opacity="0.4" d="M7.34594 2.80066C7.87765 1.95528 9.12231 1.95528 9.65402 2.80066L10.9399 4.84516C11.127 5.1426 11.4242 5.35605 11.7682 5.44002L14.1325 6.01719C15.1102 6.25584 15.4948 7.42601 14.8458 8.18713L13.2762 10.0279C13.0478 10.2957 12.9343 10.641 12.9598 10.9904L13.1351 13.3916C13.2076 14.3845 12.2007 15.1077 11.2679 14.7327L9.01187 13.8258C8.68366 13.6939 8.3163 13.6939 7.98809 13.8258L5.7321 14.7327C4.79927 15.1077 3.79232 14.3845 3.86482 13.3916L4.04016 10.9904C4.06566 10.641 3.95215 10.2957 3.72379 10.0279L2.15417 8.18713C1.50515 7.42601 1.88977 6.25584 2.86741 6.01719L5.23177 5.44002C5.57574 5.35605 5.87294 5.1426 6.06002 4.84516L7.34594 2.80066Z" fill="#006073"/>
</svg>
