<svg width="16" height="16" viewBox="0 0 16 16" fill="none" xmlns="http://www.w3.org/2000/svg">
<path d="M4.83331 4.66665H11.1666V3.33331C11.1666 1.99998 10.6666 1.33331 9.16665 1.33331H6.83331C5.33331 1.33331 4.83331 1.99998 4.83331 3.33331V4.66665Z" stroke="#2B7B8B" stroke-miterlimit="10" stroke-linecap="round" stroke-linejoin="round"/>
<path d="M10.6666 10V12.6667C10.6666 14 9.99998 14.6667 8.66665 14.6667H7.33331C5.99998 14.6667 5.33331 14 5.33331 12.6667V10H10.6666Z" stroke="#2B7B8B" stroke-miterlimit="10" stroke-linecap="round" stroke-linejoin="round"/>
<path d="M14 6.66669V10C14 11.3334 13.3333 12 12 12H10.6667V10H5.33333V12H4C2.66667 12 2 11.3334 2 10V6.66669C2 5.33335 2.66667 4.66669 4 4.66669H12C13.3333 4.66669 14 5.33335 14 6.66669Z" stroke="#2B7B8B" stroke-miterlimit="10" stroke-linecap="round" stroke-linejoin="round"/>
<path d="M11.3334 10H10.5267H4.66669" stroke="#2B7B8B" stroke-miterlimit="10" stroke-linecap="round" stroke-linejoin="round"/>
<path d="M4.66669 7.33331H6.66669" stroke="#2B7B8B" stroke-miterlimit="10" stroke-linecap="round" stroke-linejoin="round"/>
</svg>
