<svg width="31" height="30" viewBox="0 0 31 30" fill="none" xmlns="http://www.w3.org/2000/svg">
<path d="M13.3362 4.31382C14.3331 2.72873 16.6669 2.72873 17.6638 4.31382L20.0749 8.14725C20.4257 8.70495 20.9829 9.10517 21.6279 9.26261L26.0611 10.3448C27.8941 10.7923 28.6153 12.9863 27.3984 14.4135L24.4554 17.8648C24.0272 18.367 23.8143 19.0145 23.8622 19.6695L24.1909 24.1718C24.3269 26.0334 22.4388 27.3894 20.6898 26.6864L16.4598 24.986C15.8444 24.7386 15.1556 24.7386 14.5402 24.986L10.3102 26.6864C8.56116 27.3894 6.67314 26.0334 6.80907 24.1718L7.13783 19.6695C7.18566 19.0145 6.97281 18.367 6.54465 17.8648L3.60162 14.4135C2.3847 12.9863 3.10586 10.7923 4.93894 10.3448L9.37211 9.26261C10.0171 9.10517 10.5743 8.70495 10.9251 8.14725L13.3362 4.31382Z" fill="#006073"/>
</svg>
