<svg width="151" height="150" viewBox="0 0 151 150" fill="none" xmlns="http://www.w3.org/2000/svg">
<g id="No Notification illustration">
<path id="Vector" d="M78.1365 140.036C114.921 140.036 144.74 108.688 144.74 70.0178C144.74 31.348 114.921 0 78.1365 0C41.3522 0 11.5327 31.348 11.5327 70.0178C11.5327 108.688 41.3522 140.036 78.1365 140.036Z" fill="url(#paint0_linear_1_3568)"/>
<path id="Vector (Stroke)" fill-rule="evenodd" clip-rule="evenodd" d="M78.2416 7.80896C77.9088 7.6646 77.5523 7.59063 77.1923 7.59128L77.1894 7.59129C76.4626 7.59195 75.7658 7.89575 75.2518 8.436C74.7382 8.97593 74.4493 9.70794 74.4483 10.4715V14.0971H67.6323L67.6323 10.4666C67.6345 7.80439 68.6415 5.25182 70.4322 3.36931C72.2226 1.48716 74.6501 0.428601 77.1821 0.425915L77.1835 0.425913C78.4385 0.424038 79.6816 0.682134 80.8418 1.18547C82.0029 1.68919 83.058 2.42865 83.947 3.36154C84.8359 4.29442 85.5411 5.40242 86.0223 6.62212C86.5035 7.84182 86.7511 9.1493 86.7511 10.4697V13.963H79.9351V10.4697C79.9351 10.0913 79.8642 9.71661 79.7263 9.36704C79.5884 9.01749 79.3863 8.69995 79.1315 8.4326C78.8767 8.16524 78.5743 7.95332 78.2416 7.80896ZM77.1835 0.425913L77.1821 0.425915Z" fill="url(#paint1_linear_1_3568)"/>
<path id="Vector_2" d="M77.6064 131.185C91.7331 131.185 103.185 119.146 103.185 104.295C103.185 89.4443 91.7331 77.4054 77.6064 77.4054C63.4798 77.4054 52.0278 89.4443 52.0278 104.295C52.0278 119.146 63.4798 131.185 77.6064 131.185Z" fill="url(#paint2_linear_1_3568)"/>
<path id="Vector_3" d="M117.965 74.6506V54.0208C117.965 42.7683 113.713 31.9766 106.144 24.0199C98.5757 16.0631 88.3102 11.5931 77.6064 11.5931C66.9025 11.5931 56.637 16.0631 49.0682 24.0199C41.4995 31.9766 37.2474 42.7683 37.2474 54.0208V74.6506C37.2478 79.3901 35.9724 84.0331 33.5686 88.0427C31.1648 92.0523 27.7307 95.265 23.6632 97.3093C22.7284 97.7773 21.9392 98.5149 21.3876 99.4361C20.836 100.357 20.5447 101.424 20.5476 102.513V102.625C20.5469 103.018 20.62 103.407 20.7626 103.771C20.9053 104.134 21.1147 104.464 21.3789 104.743C21.6431 105.021 21.9569 105.242 22.3023 105.392C22.6478 105.543 23.0181 105.62 23.3921 105.62H131.815C132.189 105.62 132.56 105.543 132.905 105.392C133.251 105.242 133.564 105.021 133.829 104.743C134.093 104.464 134.302 104.134 134.445 103.771C134.587 103.407 134.66 103.018 134.66 102.625V102.513C134.66 101.428 134.368 100.365 133.818 99.4469C133.267 98.529 132.481 97.7937 131.549 97.3261C127.48 95.2805 124.044 92.0653 121.64 88.0524C119.236 84.0395 117.962 79.393 117.965 74.6506Z" fill="url(#paint3_linear_1_3568)"/>
<path id="Vector_4" d="M150.073 48.19C150.103 48.1327 150.122 48.0694 150.127 48.0042C150.132 47.939 150.124 47.8734 150.104 47.8116C150.083 47.7498 150.05 47.6934 150.007 47.6459C149.965 47.5984 149.913 47.5609 149.855 47.536C148.175 46.8318 142.231 44.7414 138.982 48.9557C136.809 51.7255 133.737 53.5512 130.359 54.081C130.274 54.093 130.194 54.1317 130.131 54.1921C130.067 54.2524 130.022 54.3316 130.002 54.4193C129.982 54.5069 129.987 54.5989 130.018 54.6831C130.048 54.7674 130.102 54.84 130.173 54.8914C133.044 57.0321 142.529 62.4872 150.073 48.19Z" fill="#AE6BAD"/>
<path id="Vector_5" d="M24.1663 77.7458C24.1903 77.6997 24.2048 77.6489 24.2089 77.5965C24.2129 77.5442 24.2065 77.4916 24.1899 77.442C24.1734 77.3925 24.1471 77.3471 24.1128 77.309C24.0785 77.2708 24.037 77.2406 23.9909 77.2204C22.6458 76.6615 17.8661 74.9847 15.2556 78.3382C13.5136 80.5603 11.0521 82.0273 8.34388 82.4575C8.27588 82.4671 8.21222 82.498 8.16127 82.5463C8.11031 82.5946 8.07443 82.658 8.05833 82.7281C8.04223 82.7982 8.04667 82.8718 8.07106 82.9392C8.09545 83.0066 8.13866 83.0647 8.19501 83.1059C10.4865 84.8497 18.1053 89.2316 24.1663 77.7458Z" fill="#AE6BAD"/>
<path id="Vector_6" d="M136.995 71.4057C136.975 71.3674 136.963 71.3249 136.959 71.2812C136.956 71.2375 136.961 71.1935 136.975 71.1522C136.99 71.1109 137.012 71.0732 137.041 71.0418C137.07 71.0103 137.105 70.9857 137.144 70.9698C138.271 70.4947 142.264 69.0918 144.444 71.9199C145.905 73.7804 147.969 75.0068 150.239 75.3629C150.299 75.3687 150.356 75.3943 150.402 75.4361C150.447 75.478 150.479 75.5338 150.493 75.5958C150.506 75.6578 150.501 75.7226 150.477 75.7812C150.454 75.8397 150.413 75.8889 150.361 75.9218C148.437 77.3694 142.062 81.0303 136.995 71.4057Z" fill="#AE6BAD"/>
<path id="Vector_7" d="M0.55936 53.2667C0.526545 53.2029 0.506829 53.1324 0.501483 53.06C0.496137 52.9876 0.50528 52.9149 0.528321 52.8464C0.551363 52.778 0.587792 52.7153 0.635262 52.6626C0.682731 52.6098 0.740187 52.5681 0.803927 52.5401C2.66477 51.7632 9.25215 49.4493 12.8515 54.1107C15.2626 57.1841 18.6727 59.2076 22.4216 59.7894C22.5153 59.8039 22.6028 59.8477 22.6726 59.915C22.7424 59.9824 22.7913 60.0703 22.8131 60.1672C22.8349 60.2642 22.8285 60.3658 22.7947 60.4588C22.7609 60.5519 22.7013 60.6322 22.6236 60.6892C19.4283 63.0591 8.9172 69.1066 0.55936 53.2667Z" fill="#AE6BAD"/>
<path id="Polygon 3" d="M23.2118 36.2898C22.9049 35.0242 24.0175 33.8827 25.2135 34.2361L27.8464 35.0139C29.0414 35.3669 29.4235 36.9476 28.5344 37.8598L26.5771 39.868C25.6881 40.7802 24.1942 40.3402 23.8875 39.0758L23.2118 36.2898Z" fill="#DA6FD8"/>
<path id="Star 2" d="M132.62 13.9249C133.092 11.8692 136.02 11.8692 136.492 13.9249L136.527 14.079C136.694 14.8049 137.253 15.3766 137.975 15.5598L138.503 15.6939C140.5 16.2007 140.5 19.0377 138.503 19.5444L137.975 19.6785C137.253 19.8617 136.694 20.4334 136.527 21.1593L136.492 21.3135C136.02 23.3692 133.092 23.3691 132.62 21.3135L132.585 21.1593C132.418 20.4334 131.859 19.8617 131.137 19.6785L130.609 19.5444C128.612 19.0377 128.612 16.2007 130.609 15.6939L131.137 15.5598C131.859 15.3766 132.418 14.8049 132.585 14.079L132.62 13.9249Z" fill="#DA6FD8"/>
<path id="Star 1" d="M50.1644 134.181C50.6364 132.125 53.5642 132.125 54.0362 134.181L54.0716 134.335C54.2383 135.061 54.797 135.632 55.5189 135.816L56.0474 135.95C58.0444 136.456 58.0444 139.293 56.0474 139.8L55.5189 139.934C54.797 140.117 54.2383 140.689 54.0716 141.415L54.0362 141.569C53.5642 143.625 50.6364 143.625 50.1644 141.569L50.129 141.415C49.9623 140.689 49.4035 140.117 48.6816 139.934L48.1531 139.8C46.1562 139.293 46.1562 136.456 48.1531 135.95L48.6816 135.816C49.4035 135.632 49.9623 135.061 50.129 134.335L50.1644 134.181Z" fill="#DA6FD8"/>
<path id="Ellipse 54" d="M32.8979 122.107C34.0123 122.107 35.0198 123.076 35.02 124.402C35.02 125.729 34.0124 126.697 32.8979 126.697C31.7834 126.697 30.7749 125.729 30.7749 124.402C30.7751 123.076 31.7835 122.107 32.8979 122.107Z" stroke="#DA6FD8" stroke-width="2.48287"/>
<path id="Ellipse 59" d="M36.9626 12.8397C38.077 12.8398 39.0845 13.8082 39.0847 15.1346C39.0847 16.4613 38.0771 17.4294 36.9626 17.4296C35.8481 17.4296 34.8396 16.4614 34.8396 15.1346C34.8398 13.8081 35.8482 12.8397 36.9626 12.8397Z" stroke="#FF9FFD" stroke-width="2.48287"/>
<path id="Ellipse 60" d="M142.064 116.614C143.179 116.614 144.186 117.583 144.187 118.909C144.187 120.236 143.179 121.204 142.064 121.204C140.95 121.204 139.941 120.236 139.941 118.909C139.942 117.583 140.95 116.614 142.064 116.614Z" stroke="#FF9FFD" stroke-width="2.48287"/>
</g>
<defs>
<linearGradient id="paint0_linear_1_3568" x1="77.6231" y1="-22.7995" x2="79.1309" y2="223.091" gradientUnits="userSpaceOnUse">
<stop stop-color="white"/>
<stop offset="1" stop-color="#FFD7FE"/>
</linearGradient>
<linearGradient id="paint1_linear_1_3568" x1="91.4026" y1="14.8012" x2="81.096" y2="-3.10788" gradientUnits="userSpaceOnUse">
<stop stop-color="#8C458A"/>
<stop offset="1" stop-color="#FADAFF"/>
</linearGradient>
<linearGradient id="paint2_linear_1_3568" x1="120.699" y1="149.252" x2="37.7883" y2="64.0388" gradientUnits="userSpaceOnUse">
<stop stop-color="#EBD4EB"/>
<stop offset="0.70369" stop-color="#A453A3"/>
</linearGradient>
<linearGradient id="paint3_linear_1_3568" x1="93.4075" y1="97.9757" x2="66.4601" y2="22.6136" gradientUnits="userSpaceOnUse">
<stop stop-color="#774076"/>
<stop offset="1" stop-color="#FBE6FF"/>
</linearGradient>
</defs>
</svg>
