<svg width="36" height="36" viewBox="0 0 36 36" fill="none" xmlns="http://www.w3.org/2000/svg">
<path d="M12 21C11.575 21 11.219 20.856 10.932 20.568C10.645 20.28 10.501 19.924 10.5 19.5C10.499 19.076 10.643 18.72 10.932 18.432C11.221 18.144 11.577 18 12 18C12.423 18 12.7795 18.144 13.0695 18.432C13.3595 18.72 13.503 19.076 13.5 19.5C13.497 19.924 13.353 20.2805 13.068 20.5695C12.783 20.8585 12.427 21.002 12 21ZM18 21C17.575 21 17.219 20.856 16.932 20.568C16.645 20.28 16.501 19.924 16.5 19.5C16.499 19.076 16.643 18.72 16.932 18.432C17.221 18.144 17.577 18 18 18C18.423 18 18.7795 18.144 19.0695 18.432C19.3595 18.72 19.503 19.076 19.5 19.5C19.497 19.924 19.353 20.2805 19.068 20.5695C18.783 20.8585 18.427 21.002 18 21ZM24 21C23.575 21 23.219 20.856 22.932 20.568C22.645 20.28 22.501 19.924 22.5 19.5C22.499 19.076 22.643 18.72 22.932 18.432C23.221 18.144 23.577 18 24 18C24.423 18 24.7795 18.144 25.0695 18.432C25.3595 18.72 25.503 19.076 25.5 19.5C25.497 19.924 25.353 20.2805 25.068 20.5695C24.783 20.8585 24.427 21.002 24 21ZM7.5 33C6.675 33 5.969 32.7065 5.382 32.1195C4.795 31.5325 4.501 30.826 4.5 30V9C4.5 8.175 4.794 7.469 5.382 6.882C5.97 6.295 6.676 6.001 7.5 6.00001H9V4.50001C9 4.07501 9.144 3.71901 9.432 3.43201C9.72 3.14501 10.076 3.00101 10.5 3.00001C10.924 2.99901 11.2805 3.14301 11.5695 3.43201C11.8585 3.72101 12.002 4.07701 12 4.50001V6.00001H24V4.50001C24 4.07501 24.144 3.71901 24.432 3.43201C24.72 3.14501 25.076 3.00101 25.5 3.00001C25.924 2.99901 26.2805 3.14301 26.5695 3.43201C26.8585 3.72101 27.002 4.07701 27 4.50001V6.00001H28.5C29.325 6.00001 30.0315 6.294 30.6195 6.882C31.2075 7.47 31.501 8.176 31.5 9V30C31.5 30.825 31.2065 31.5315 30.6195 32.1195C30.0325 32.7075 29.326 33.001 28.5 33H7.5ZM7.5 30H28.5V15H7.5V30ZM7.5 12H28.5V9H7.5V12Z" fill="#006073"/>
</svg>
