<svg width="36" height="36" viewBox="0 0 36 36" fill="none" xmlns="http://www.w3.org/2000/svg">
<path d="M12.2095 5.08681C12.4343 4.63984 12.7789 4.26413 13.2048 4.00159C13.6307 3.73905 14.1211 3.60002 14.6215 3.60001H21.3967C21.8984 3.60002 22.3901 3.73982 22.8168 4.00371C23.2435 4.2676 23.5882 4.64515 23.8123 5.09401L24.8653 7.20001H27.9073C29.1007 7.20001 30.2453 7.67411 31.0892 8.51803C31.9332 9.36194 32.4073 10.5065 32.4073 11.7V15.651C31.8803 15.1986 31.2684 14.8559 30.6073 14.643V11.7C30.6073 10.9839 30.3228 10.2972 29.8165 9.79082C29.3101 9.28447 28.6234 9.00001 27.9073 9.00001H24.3073C24.1406 8.99967 23.9772 8.95304 23.8355 8.86532C23.6937 8.7776 23.5791 8.65224 23.5045 8.50321L22.2031 5.89861C22.1284 5.74869 22.0133 5.6226 21.8708 5.53451C21.7284 5.44643 21.5642 5.39984 21.3967 5.40001H14.6215C14.4547 5.39984 14.2911 5.44605 14.149 5.53345C14.0069 5.62086 13.8919 5.74604 13.8169 5.89501L12.5065 8.50321C12.4315 8.6519 12.3168 8.7769 12.1751 8.86429C12.0334 8.95168 11.8702 8.99803 11.7037 8.99821H8.10727C7.39118 8.99821 6.70443 9.28267 6.19808 9.78902C5.69173 10.2954 5.40727 10.9821 5.40727 11.6982V26.1C5.40727 26.8161 5.69173 27.5028 6.19808 28.0092C6.70443 28.5155 7.39118 28.8 8.10727 28.8H14.7961L14.5027 29.9754C14.4499 30.1866 14.4175 30.3948 14.4055 30.6H8.10547C6.91199 30.6 5.7674 30.1259 4.92349 29.282C4.07957 28.4381 3.60547 27.2935 3.60547 26.1V11.7C3.60547 10.5065 4.07957 9.36194 4.92349 8.51803C5.7674 7.67411 6.91199 7.20001 8.10547 7.20001H11.1475L12.2095 5.08681ZM24.9967 16.3008C24.575 14.595 23.5443 13.1022 22.0987 12.1033C20.6531 11.1044 18.8922 10.6683 17.1475 10.8771C15.4028 11.0859 13.7946 11.9253 12.6256 13.2371C11.4565 14.549 10.8073 16.2429 10.8001 18C10.8001 21.402 13.1581 24.2514 16.3297 25.0056C16.4441 24.8664 16.5655 24.7331 16.6933 24.606L17.8993 23.4C16.8401 23.38 15.8102 23.049 14.9378 22.4481C14.0654 21.8471 13.389 21.0028 12.9928 20.0204C12.5967 19.0379 12.4982 17.9606 12.7098 16.9225C12.9214 15.8845 13.4336 14.9317 14.1827 14.1826C14.9317 13.4335 15.8846 12.9213 16.9226 12.7097C17.9606 12.4982 19.0379 12.5966 20.0204 12.9928C21.0029 13.3889 21.8472 14.0653 22.4481 14.9377C23.049 15.8101 23.3801 16.84 23.4001 17.8992L24.9967 16.3008ZM26.6563 17.1864L17.9623 25.8804C17.4564 26.3872 17.0975 27.0218 16.9237 27.7164L16.2487 30.4128C16.1821 30.681 16.186 30.9618 16.2601 31.228C16.3341 31.4942 16.4757 31.7368 16.6712 31.9321C16.8667 32.1274 17.1094 32.2688 17.3756 32.3426C17.6419 32.4164 17.9228 32.42 18.1909 32.3532L20.8873 31.68C21.5821 31.5057 22.2166 31.1461 22.7233 30.6396L31.4173 21.9456C32.0403 21.3126 32.3879 20.459 32.3843 19.5708C32.3807 18.6826 32.0262 17.8318 31.398 17.2039C30.7698 16.5759 29.9189 16.2217 29.0307 16.2185C28.1425 16.2152 27.289 16.5631 26.6563 17.1864Z" fill="#006073"/>
</svg>
