<svg width="36" height="36" viewBox="0 0 36 36" fill="none" xmlns="http://www.w3.org/2000/svg">
<path fill-rule="evenodd" clip-rule="evenodd" d="M7.31385 9.1575V3.9375C7.31385 3.48995 7.49164 3.06072 7.80811 2.74426C8.12457 2.42779 8.5538 2.25 9.00135 2.25C9.4489 2.25 9.87812 2.42779 10.1946 2.74426C10.5111 3.06072 10.6888 3.48995 10.6888 3.9375V9.1575C12.7463 9.55035 14.6023 10.6483 15.9373 12.2624C17.2723 13.8764 18.0027 15.9054 18.0027 18C18.0027 20.0946 17.2723 22.1236 15.9373 23.7376C14.6023 25.3517 12.7463 26.4497 10.6888 26.8425V32.0625C10.6888 32.5101 10.5111 32.9393 10.1946 33.2557C9.87812 33.5722 9.4489 33.75 9.00135 33.75C8.5538 33.75 8.12457 33.5722 7.80811 33.2557C7.49164 32.9393 7.31385 32.5101 7.31385 32.0625V26.8425C5.25643 26.4497 3.40039 25.3517 2.06539 23.7376C0.730395 22.1236 0 20.0946 0 18C0 15.9054 0.730395 13.8764 2.06539 12.2624C3.40039 10.6483 5.25643 9.55035 7.31385 9.1575ZM9.00135 23.625C10.4932 23.625 11.9239 23.0324 12.9788 21.9775C14.0337 20.9226 14.6263 19.4918 14.6263 18C14.6263 16.5082 14.0337 15.0774 12.9788 14.0225C11.9239 12.9676 10.4932 12.375 9.00135 12.375C7.50951 12.375 6.07876 12.9676 5.02387 14.0225C3.96898 15.0774 3.37635 16.5082 3.37635 18C3.37635 19.4918 3.96898 20.9226 5.02387 21.9775C6.07876 23.0324 7.50951 23.625 9.00135 23.625ZM21.9389 9C21.4913 9 21.0621 9.17779 20.7456 9.49426C20.4291 9.81072 20.2514 10.2399 20.2514 10.6875C20.2514 11.1351 20.4291 11.5643 20.7456 11.8807C21.0621 12.1972 21.4913 12.375 21.9389 12.375H34.3139C34.7614 12.375 35.1906 12.1972 35.5071 11.8807C35.8236 11.5643 36.0013 11.1351 36.0013 10.6875C36.0013 10.2399 35.8236 9.81072 35.5071 9.49426C35.1906 9.17779 34.7614 9 34.3139 9H21.9389ZM21.9389 16.3125C21.4913 16.3125 21.0621 16.4903 20.7456 16.8068C20.4291 17.1232 20.2514 17.5524 20.2514 18C20.2514 18.4476 20.4291 18.8768 20.7456 19.1932C21.0621 19.5097 21.4913 19.6875 21.9389 19.6875H34.3139C34.7614 19.6875 35.1906 19.5097 35.5071 19.1932C35.8236 18.8768 36.0013 18.4476 36.0013 18C36.0013 17.5524 35.8236 17.1232 35.5071 16.8068C35.1906 16.4903 34.7614 16.3125 34.3139 16.3125H21.9389ZM20.2514 25.3125C20.2514 24.8649 20.4291 24.4357 20.7456 24.1193C21.0621 23.8028 21.4913 23.625 21.9389 23.625H34.3139C34.7614 23.625 35.1906 23.8028 35.5071 24.1193C35.8236 24.4357 36.0013 24.8649 36.0013 25.3125C36.0013 25.7601 35.8236 26.1893 35.5071 26.5057C35.1906 26.8222 34.7614 27 34.3139 27H21.9389C21.4913 27 21.0621 26.8222 20.7456 26.5057C20.4291 26.1893 20.2514 25.7601 20.2514 25.3125Z" fill="#006073"/>
</svg>
